<svg width="32" height="32" viewBox="0 0 32 32" fill="none" xmlns="http://www.w3.org/2000/svg">
<path d="M9.08666 7.76824L9.74923 7.28116C10.6229 8.47342 11.0016 9.82562 11.0889 11.1923C11.2273 13.3951 11.22 15.4961 11.8389 17.4154C11.8826 17.5535 11.919 17.6989 11.919 17.8806C11.9699 18.2441 11.584 18.7821 11.271 18.8548C10.9797 18.9638 10.8123 18.9493 10.6958 18.9566C10.47 18.9711 10.2516 18.9711 10.0259 18.9711C6.83684 18.9638 4.20113 17.8297 2.85414 15.9759V15.9541C1.73287 14.2893 1.21592 12.6827 1.21592 11.2069C1.21592 9.24403 2.15517 7.57923 3.53856 6.4524C4.35403 5.7763 5.3224 5.42735 6.28349 5.42735C7.62319 5.42735 8.9192 6.09617 9.77107 7.28116L9.10851 7.76097L8.44594 8.24078C7.86346 7.44837 7.07711 7.07034 6.28349 7.06307C5.71557 7.06307 5.13309 7.25935 4.58702 7.71008C3.50943 8.60428 2.86871 9.76746 2.86143 11.2069C2.86143 12.2901 3.24004 13.5769 4.22297 15.0381L3.53856 15.4961L4.20841 15.0163C5.08941 16.274 7.25186 17.3354 10.0405 17.3281C10.2298 17.3281 10.4264 17.3281 10.6229 17.3136L10.6739 17.3281L10.8996 17.8806H10.2953C10.2443 17.7498 10.521 17.3354 10.6739 17.3281L10.8996 17.8806H10.2953H10.3972L10.2953 17.9097V17.8806H10.3972L10.2953 17.9097C9.57449 15.656 9.61817 13.4097 9.47255 11.2941C9.39246 10.1455 9.10122 9.14952 8.44594 8.24078L9.10851 7.76097L9.08666 7.76824ZM1.65278 14.1439L2.3736 13.7513C2.91239 14.7473 3.34925 15.6197 3.96085 16.2231C5.59907 17.8515 7.45572 18.5567 9.6473 18.564C10.0696 18.564 10.5065 18.5349 10.9506 18.484C11.0671 18.4695 11.2127 18.4477 11.4093 18.4477C11.7952 18.4041 12.4432 18.6948 12.698 19.1674C14.3508 21.7555 17.3142 23.1585 20.3431 23.1585C21.6172 23.1585 22.8914 22.9114 24.0709 22.4025C26.2698 21.4574 27.9153 19.9235 29.3205 17.9024L30.1141 16.7538L30.733 18.0042C30.8568 18.2659 30.8932 18.5131 30.8932 18.753C30.8058 20.6868 28.8181 23.8201 26.3207 26.0374C23.5248 28.4292 19.9135 29.905 16.1274 29.905C13.4917 29.905 10.7758 29.1853 8.24207 27.5641C4.20112 24.9542 0.793627 19.6617 0.749941 15.1908C0.749941 14.7909 0.779065 14.3984 0.837313 14.0131L1.21592 11.6358L2.36632 13.7513L1.6455 14.1439L2.46097 14.2748C2.41729 14.5656 2.38816 14.8709 2.38816 15.198C2.34448 18.8184 5.55539 23.9582 9.12307 26.1901C11.402 27.6368 13.7902 28.2693 16.1201 28.2693C19.4693 28.2693 22.7167 26.9534 25.2432 24.7943C27.4493 22.9913 29.3278 19.5672 29.2404 18.7603L29.255 18.7385L29.9904 18.375L30.6675 18.8402C29.1458 21.043 27.2454 22.8314 24.7116 23.9146C23.3137 24.5107 21.8211 24.8015 20.3358 24.8015C16.8191 24.8015 13.3096 23.1731 11.3074 20.0543L11.3583 20.0252L11.3365 20.0616H11.3074L11.3583 20.0252L11.3365 20.0616L11.402 19.938V20.0907C11.402 20.0907 11.3875 20.0907 11.3365 20.0689L11.402 19.9453V20.0979C11.402 20.0979 11.2782 20.1052 11.1399 20.127C10.6302 20.1924 10.1278 20.2215 9.64002 20.2215C7.08439 20.2288 4.71079 19.3273 2.78862 17.3935C1.92218 16.5139 1.44163 15.4888 0.917403 14.5438L1.63822 14.1512L1.65278 14.1439ZM29.488 16.7029L30.2306 17.0519C29.2477 19.1165 27.6532 20.6286 25.7965 22.0026L25.7455 22.039L25.6946 22.0681C25.3888 22.228 24.901 22.5115 24.384 22.766C22.9278 23.4857 21.4498 23.7983 20.0445 23.7983C16.7681 23.791 13.9212 22.1408 12.1956 20.1125C12.0427 19.9016 11.8025 19.7344 11.7661 19.1674C11.8243 18.375 12.4286 18.1641 12.749 18.0406C15.2172 17.1609 17.3433 15.8014 19.0543 13.8386C20.9328 11.6722 22.0322 9.30945 22.0395 6.50329C22.0395 6.41605 22.0395 6.32881 22.0395 6.24157C22.025 5.69633 21.9012 5.06385 21.8502 4.35141C21.8502 4.27871 21.8429 4.21328 21.8429 4.14058C21.8429 3.00648 22.7021 2.00324 23.8452 2.00324C24.1292 2.00324 24.4204 2.05413 24.7044 2.14864C25.0757 2.2795 25.4033 2.46124 25.6946 2.6648C27.959 4.22782 29.5171 6.36516 30.4199 8.93869C30.8786 10.2618 31.1553 11.6067 31.1553 12.9589C31.1553 14.3257 30.8714 15.7069 30.2306 17.0519L29.488 16.7029L28.7453 16.354C29.2768 15.2271 29.5098 14.1076 29.5098 12.9662C29.5098 11.8321 29.2768 10.6689 28.8618 9.48393C28.0536 7.20119 26.7285 5.391 24.7553 4.01699C24.5587 3.87887 24.3476 3.76982 24.1656 3.70439C24.0272 3.66077 23.918 3.64623 23.8306 3.64623C23.5613 3.69712 23.5394 3.64623 23.4739 4.14058C23.4739 4.16966 23.4739 4.20601 23.4739 4.23509C23.5103 4.80941 23.6413 5.4637 23.6632 6.19795C23.6632 6.29973 23.6632 6.40151 23.6632 6.49602C23.6632 9.75292 22.3453 12.5445 20.2775 14.9072C18.3699 17.1027 15.9818 18.6222 13.2878 19.5818C13.1931 19.6109 13.2077 19.6254 13.1931 19.6109L12.8218 19.1601H13.3897C13.4043 19.3709 13.2441 19.589 13.1859 19.6109L12.8145 19.1601H13.3824H12.9383L13.3315 18.9275C13.3315 18.9275 13.3824 18.9929 13.3824 19.1601H12.9383L13.3315 18.9275C13.3315 18.9275 13.3606 18.9711 13.4188 19.0438C14.8532 20.7377 17.3142 22.1626 20.0081 22.1553C21.1731 22.1553 22.3817 21.9009 23.6195 21.2902C24.0782 21.0648 24.5442 20.7958 24.8864 20.6141L25.2723 21.3411L24.7845 20.6795C26.5465 19.3709 27.9007 18.0551 28.7089 16.3394L29.4516 16.6884L29.488 16.7029ZM2.26438 7.83367L2.9852 8.23351C2.00227 9.99282 1.6455 11.8757 1.6455 13.8677C1.6455 14.362 1.66734 14.8709 1.71103 15.3725C1.92218 17.9024 2.643 20.2506 4.04094 22.3661C6.30533 25.8339 9.05754 28.3347 13.1349 29.1271C14.1469 29.3234 15.1299 29.4179 16.0837 29.4179C19.3237 29.4179 22.2725 28.3347 25.0029 26.2119C28.8691 23.1876 30.3253 19.2546 30.3398 14.5656C30.3398 14.0858 30.3253 13.5987 30.2962 13.1116C30.0559 9.48393 28.5414 6.5251 25.8548 4.04607C25.0903 3.3409 24.1947 2.9047 23.1462 2.69388C22.9715 2.65753 22.8332 2.64299 22.7312 2.64299C22.5783 2.64299 22.6002 2.6648 22.5783 2.64299C22.5783 2.64299 22.5565 2.64299 22.5783 2.80293C22.5783 2.89016 22.5856 3.00648 22.6147 3.15188C22.7531 3.93703 22.855 4.72944 22.9205 5.52186C22.9496 5.81992 22.9569 6.11798 22.9569 6.41605C22.9569 10.0655 21.0202 12.8571 18.6102 15.1835C16.9647 16.7756 14.9915 17.8734 12.8218 18.5349C12.6325 18.5931 12.4432 18.6367 12.2102 18.644C11.4821 18.6803 10.9579 17.9388 10.8996 17.5026C10.2807 15.4525 10.2516 13.4169 10.1278 11.4831C10.0478 10.1818 9.75651 9.01866 9.07938 7.99361C8.22023 6.70684 7.22273 6.27792 6.22524 6.27065C4.95835 6.26338 3.63321 7.08488 2.99248 8.24078L2.27167 7.84094L1.55085 7.4411C2.4901 5.7763 4.27394 4.6422 6.21796 4.62766C7.75424 4.61312 9.34878 5.40554 10.4409 7.09215C11.3219 8.42253 11.6641 9.90558 11.7588 11.3814C11.8826 13.366 11.9262 15.2635 12.465 17.03C12.4942 17.1391 12.516 17.1173 12.4942 17.1391L12.2029 17.4008V17.001C12.2029 17.001 12.4432 17.0591 12.4942 17.1391L12.2029 17.4008V17.001C12.2029 17.001 12.2248 17.001 12.3267 16.9719C14.2853 16.3685 16.0109 15.4016 17.4598 14.0058C19.7387 11.7957 21.3041 9.45485 21.3114 6.42332C21.3114 6.17614 21.3041 5.9217 21.2823 5.66725C21.2241 4.91846 21.1294 4.1842 20.9983 3.44994C20.9619 3.23185 20.9401 3.02102 20.9401 2.81747C20.9401 2.36673 21.0566 1.86511 21.4206 1.49435C21.7847 1.11632 22.2798 1 22.7312 1C22.9715 1 23.219 1.02908 23.4739 1.07997C24.7845 1.34168 25.9858 1.92327 26.976 2.83928C29.9321 5.54367 31.6941 8.9605 31.9489 13.0098C31.9781 13.5332 31.9999 14.0567 31.9999 14.5728C32.0145 19.5963 30.3253 24.1763 26.0295 27.5132C23.0661 29.8323 19.7169 31.0754 16.0982 31.0682C15.0352 31.0682 13.9431 30.9591 12.8364 30.7483C8.21294 29.8614 5.04572 26.9389 2.67212 23.2676C1.09943 20.9049 0.29852 18.2587 0.0655288 15.5034C0.0218429 14.9581 0 14.4129 0 13.8677C0 11.6794 0.400454 9.48393 1.55085 7.43383L2.27167 7.83367H2.26438Z" fill="url(#paint0_linear_107_3)"/>
<defs>
<linearGradient id="paint0_linear_107_3" x1="-0.00728098" y1="15.925" x2="31.9853" y2="16.1073" gradientUnits="userSpaceOnUse">
<stop stop-color="#6857AA"/>
<stop offset="0.03" stop-color="#6857AA"/>
<stop offset="0.53" stop-color="#00CAEF"/>
<stop offset="0.69" stop-color="#12C5BB"/>
<stop offset="0.87" stop-color="#24C189"/>
<stop offset="0.96" stop-color="#2BC076"/>
<stop offset="1" stop-color="#2BC076"/>
</linearGradient>
</defs>
</svg>
